<svg width="595" height="86" viewBox="0 0 595 86" fill="none" xmlns="http://www.w3.org/2000/svg">
<path d="M560.588 40.5038C560.588 41.846 561.417 42.8724 563.075 43.583C564.733 44.2146 567.378 44.8857 571.01 45.5963C575.668 46.5437 579.536 47.6096 582.616 48.7939C585.695 49.8992 588.379 51.7941 590.669 54.4785C593.037 57.0839 594.222 60.7158 594.222 65.374C594.222 69.4006 592.998 72.8745 590.55 75.7958C588.103 78.6381 584.866 80.8093 580.839 82.3094C576.813 83.7306 572.47 84.4412 567.812 84.4412C561.417 84.4412 555.969 83.2963 551.469 81.0067C547.555 78.947 544.478 76.0515 542.236 72.3202C541.671 71.3802 542.069 70.1819 543.045 69.6815L553.143 64.5033C554.207 63.9578 555.493 64.4759 556.103 65.5042C558.299 69.2072 562.202 71.0586 567.812 71.0586C570.496 71.0586 572.825 70.5849 574.799 69.6375C576.852 68.6111 577.878 67.1899 577.878 65.374C577.878 63.7949 576.931 62.6106 575.036 61.8211C573.22 61.0316 570.299 60.2026 566.272 59.3341C561.693 58.3077 557.864 57.2418 554.785 56.1365C551.706 54.9522 549.061 53.1758 546.85 50.8072C544.639 48.3596 543.534 45.1226 543.534 41.0959C543.534 37.2273 544.639 33.8717 546.85 31.0294C549.061 28.1082 552.021 25.8975 555.732 24.3974C559.522 22.8973 563.627 22.1472 568.049 22.1472C573.26 22.1472 577.957 23.2131 582.142 25.3448C585.676 27.1451 588.562 29.621 590.801 32.7727C591.475 33.7214 591.081 35.0199 590.037 35.5331L580.045 40.4426C579.048 40.9329 577.86 40.4984 577.214 39.5937C576.415 38.4758 575.452 37.5948 574.326 36.9509C572.746 36.0035 570.654 35.5298 568.049 35.5298C565.759 35.5298 563.943 36.0035 562.601 36.9509C561.259 37.8194 560.588 39.0037 560.588 40.5038Z" fill="url(#paint0_linear_287_2346)"/>
<path d="M522.24 25.6863C522.24 24.5817 523.136 23.6863 524.24 23.6863H537.176C538.28 23.6863 539.176 24.5817 539.176 25.6863V80.9011C539.176 82.0056 538.28 82.9011 537.176 82.9011H523.519C522.813 82.9011 522.24 82.3287 522.24 81.6226C522.24 80.5355 520.954 79.9272 520.06 80.5469C516.205 83.2217 512.155 84.5591 507.91 84.5591C504.436 84.5591 500.923 83.809 497.37 82.3089C493.817 80.8088 490.777 78.1639 488.251 74.3741C485.724 70.5844 484.461 65.4919 484.461 59.0967V25.6863C484.461 24.5817 485.357 23.6863 486.461 23.6863H499.397C500.501 23.6863 501.397 24.5817 501.397 25.6863V59.0967C501.397 62.8075 502.462 65.5314 504.594 67.2684C506.726 68.9264 509.252 69.7554 512.174 69.7554C515.016 69.7554 517.385 68.729 519.279 66.6762C521.253 64.6234 522.24 61.3469 522.24 56.8466V25.6863Z" fill="url(#paint1_linear_287_2346)"/>
<path d="M462.195 24.5167C462.571 23.9952 463.174 23.6863 463.817 23.6863H479.505C481.133 23.6863 482.079 25.5285 481.13 26.8518L462.922 52.2419C462.421 52.9409 462.423 53.882 462.927 54.5791L481.124 79.7516C482.077 81.0699 481.141 82.914 479.514 82.9233L463.708 83.0136C463.06 83.0173 462.451 82.707 462.072 82.1809L453.404 70.12C452.606 69.0097 450.954 69.0097 450.156 70.12L441.487 82.1809C441.109 82.707 440.499 83.0173 439.851 83.0136L424.045 82.9233C422.418 82.914 421.483 81.0699 422.436 79.7516L440.633 54.5791C441.137 53.882 441.138 52.9409 440.637 52.2419L422.429 26.8518C421.48 25.5285 422.426 23.6863 424.054 23.6863H439.742C440.385 23.6863 440.988 23.9952 441.364 24.5167L450.157 36.7133C450.955 37.8205 452.604 37.8205 453.402 36.7133L462.195 24.5167Z" fill="url(#paint2_linear_287_2346)"/>
<path d="M397.22 22.1472C402.984 22.1472 408.116 23.5289 412.616 26.2923C417.195 29.0556 420.748 32.8059 423.275 37.5431C425.801 42.2802 427.064 47.5306 427.064 53.2942C427.064 54.8504 426.986 56.3088 426.83 57.6693C426.718 58.6353 425.881 59.3341 424.908 59.3341H385.762C384.337 59.3341 383.372 60.7842 384.07 62.0259C385.373 64.3436 386.953 66.1702 388.811 67.5057C391.338 69.2427 394.615 70.1112 398.641 70.1112C401.089 70.1112 403.457 69.598 405.747 68.5716C407.484 67.8187 408.946 66.8745 410.131 65.7392C410.86 65.0407 411.966 64.8132 412.834 65.328L422.265 70.9163C423.26 71.5061 423.554 72.8199 422.83 73.7222C420.265 76.9184 417.097 79.4256 413.326 81.2436C408.984 83.3753 403.97 84.4412 398.286 84.4412C391.891 84.4412 386.246 83.099 381.35 80.4146C376.455 77.6512 372.666 73.9009 369.981 69.1638C367.297 64.4266 365.955 59.1367 365.955 53.2942C365.955 47.4517 367.257 42.1618 369.863 37.4246C372.547 32.6874 376.258 28.9767 380.995 26.2923C385.732 23.5289 391.141 22.1472 397.22 22.1472ZM408.793 46.1884C410.042 46.1884 411.001 45.0405 410.516 43.889C409.707 41.9707 408.354 40.4081 406.458 39.2011C403.931 37.5431 400.812 36.7141 397.102 36.7141C393.233 36.7141 389.877 37.6615 387.035 39.5564C384.979 40.8701 383.625 42.3905 382.974 44.1175C382.567 45.1955 383.507 46.1884 384.66 46.1884H408.793Z" fill="url(#paint3_linear_287_2346)"/>
<path d="M341.662 41.5379C342.742 43.2153 345.343 42.4501 345.343 40.4549V2C345.343 0.895429 346.239 0 347.343 0H361.108C362.212 0 363.108 0.895431 363.108 2V80.9007C363.108 82.0053 362.212 82.9007 361.108 82.9007H349.163C348.48 82.9007 347.845 82.5528 347.477 81.9779L318.592 36.7931C317.516 35.1091 314.907 35.8716 314.907 37.8703V80.9007C314.907 82.0053 314.012 82.9007 312.907 82.9007H299.143C298.038 82.9007 297.143 82.0053 297.143 80.9007V2C297.143 0.895433 298.038 0 299.143 0H313.816C314.496 0 315.129 0.345405 315.498 0.916994L341.662 41.5379Z" fill="url(#paint4_linear_287_2346)"/>
<path d="M54.8906 23.6028C55.1056 22.8718 55.7765 22.3698 56.5385 22.3698H66.0099C66.9585 22.3698 67.7275 23.1389 67.7275 24.0875V82.4512C67.7275 83.3999 66.9585 84.1689 66.0099 84.1689H56.0024C55.2234 84.1689 54.542 83.6447 54.3422 82.8917L53.1933 78.5612C47.9289 83.2533 41.0624 86 33.1658 86C14.6261 86 0.778564 71.9235 0.778564 53.2694C0.778564 34.6152 14.6261 20.6532 33.1658 20.6532C41.1768 20.6532 48.1578 23.5143 53.5366 28.2064L54.8906 23.6028ZM34.5392 70.2069C44.2668 70.2069 51.3622 62.997 51.3622 53.2694C51.3622 43.5417 44.2668 36.3319 34.5392 36.3319C24.8115 36.3319 17.7161 43.5417 17.7161 53.2694C17.7161 62.8826 24.8115 70.2069 34.5392 70.2069Z" fill="#393D4E"/>
<path d="M121.729 23.507C121.974 22.8248 122.62 22.3698 123.345 22.3698H136.89C138.102 22.3698 138.933 23.5928 138.486 24.7203L115.357 83.0841C115.098 83.7389 114.465 84.1689 113.76 84.1689H100.632C99.9339 84.1689 99.3051 83.7461 99.0416 83.0993L75.2637 24.7355C74.8035 23.6059 75.6346 22.3698 76.8544 22.3698H90.9511C91.6728 22.3698 92.3175 22.821 92.5648 23.4991L107.259 63.7981L121.729 23.507Z" fill="#393D4E"/>
<path d="M194.288 22.3698H205.044C205.993 22.3698 206.762 23.1389 206.762 24.0875V82.4512C206.762 83.3999 205.993 84.1689 205.044 84.1689H195.037C194.258 84.1689 193.576 83.6446 193.377 82.8917L192.228 78.5612C186.963 83.2533 180.097 86 172.2 86C153.661 86 139.813 71.9235 139.813 53.2694C139.813 34.6152 153.661 20.6532 172.2 20.6532C180.211 20.6532 187.192 23.5143 192.571 28.2064L194.288 22.3698ZM173.574 70.2069C183.301 70.2069 190.397 62.997 190.397 53.2694C190.397 43.5417 183.301 36.3319 173.574 36.3319C163.846 36.3319 156.751 43.5417 156.751 53.2694C156.751 62.8826 163.846 70.2069 173.574 70.2069Z" fill="#393D4E"/>
<path d="M228.847 16.3159C224.388 16.3159 220.773 12.7011 220.773 8.24198C220.773 3.78291 224.388 0.168111 228.847 0.168111H229.293C233.753 0.168111 237.367 3.78291 237.367 8.24198C237.367 12.7011 233.753 16.3159 229.293 16.3159H228.847ZM222.376 84.1689C221.428 84.1689 220.659 83.3999 220.659 82.4512V24.0875C220.659 23.1389 221.428 22.3698 222.376 22.3698H235.65C236.598 22.3698 237.367 23.1389 237.367 24.0875V82.4512C237.367 83.3999 236.598 84.1689 235.65 84.1689H222.376Z" fill="#393D4E"/>
<path d="M267.824 63.8745C267.824 65.3309 268.124 66.3589 268.724 66.9586C269.409 67.4727 270.48 67.7297 271.936 67.7297C272.662 67.7297 273.339 67.7297 274.326 67.7297C275.314 67.7297 275.92 68.6149 275.92 69.4256V82.2524L275.92 82.311C275.922 83.2458 275.205 84.0755 274.066 84.0755C271.904 84.0755 270.109 84.1689 267.824 84.1689L264.737 84.1686C260.368 84.1686 256.984 83.0121 254.585 80.699C252.272 78.3859 251.116 74.2738 251.116 68.3625V1.88573C251.116 0.937113 251.885 0.168105 252.833 0.168097L266.107 0.167988C267.055 0.16798 267.824 0.936994 267.824 1.88562V63.8745Z" fill="#393D4E"/>
<defs>
<linearGradient id="paint0_linear_287_2346" x1="442.855" y1="16.8826" x2="450.527" y2="98.1157" gradientUnits="userSpaceOnUse">
<stop stop-color="#13A0DC"/>
<stop offset="1" stop-color="#0B8BDC"/>
</linearGradient>
<linearGradient id="paint1_linear_287_2346" x1="442.855" y1="16.882" x2="450.528" y2="98.1151" gradientUnits="userSpaceOnUse">
<stop stop-color="#13A0DC"/>
<stop offset="1" stop-color="#0B8BDC"/>
</linearGradient>
<linearGradient id="paint2_linear_287_2346" x1="442.019" y1="16.882" x2="449.691" y2="98.1151" gradientUnits="userSpaceOnUse">
<stop stop-color="#13A0DC"/>
<stop offset="1" stop-color="#0B8BDC"/>
</linearGradient>
<linearGradient id="paint3_linear_287_2346" x1="443.691" y1="16.8826" x2="451.363" y2="98.1157" gradientUnits="userSpaceOnUse">
<stop stop-color="#13A0DC"/>
<stop offset="1" stop-color="#0B8BDC"/>
</linearGradient>
<linearGradient id="paint4_linear_287_2346" x1="443.691" y1="16.8817" x2="451.363" y2="98.1148" gradientUnits="userSpaceOnUse">
<stop stop-color="#13A0DC"/>
<stop offset="1" stop-color="#0B8BDC"/>
</linearGradient>
</defs>
</svg>
